<?xml version="1.0" encoding="UTF-8"?>
<svg xmlns="http://www.w3.org/2000/svg" id="Layer_1" data-name="Layer 1" viewBox="0 0 24 24" width="512" height="512"><path d="M21.5,9H11.5c-1.378,0-2.5,1.121-2.5,2.5v12.5h15V11.5c0-1.379-1.121-2.5-2.5-2.5Zm1.5,14H10V11.5c0-.827,.673-1.5,1.5-1.5h10c.827,0,1.5,.673,1.5,1.5v11.5ZM15,14c0,.552-.448,1-1,1s-1-.448-1-1,.448-1,1-1,1,.448,1,1Zm5,5c0,.552-.448,1-1,1s-1-.448-1-1,.448-1,1-1,1,.448,1,1ZM10.707,5.293c.391,.391,.391,1.024,0,1.414-.391,.391-1.024,.391-1.414,0-.391-.391-.391-1.024,0-1.414,.391-.391,1.024-.391,1.414,0Zm-4,4c.391,.391,.391,1.024,0,1.414-.391,.391-1.024,.391-1.414,0-.391-.391-.391-1.024,0-1.414,.391-.391,1.024-.391,1.414,0Zm1.833-7.824L1.469,8.54c-.585,.585-.585,1.536,0,2.121l5.531,5.531v1.414L.762,11.368c-.975-.975-.975-2.561,0-3.535L7.833,.762c.943-.945,2.592-.945,3.535,0l6.238,6.238h-1.414L10.661,1.469c-.566-.566-1.555-.566-2.121,0Z"/></svg>
