<?xml version="1.0" encoding="UTF-8"?>
<svg xmlns="http://www.w3.org/2000/svg" id="Layer_1" data-name="Layer 1" viewBox="0 0 24 24" width="512" height="512"><path d="M13.829,.748c-.977-.965-2.632-1.002-3.677,.037L.022,13.078l10.164,10.173c.487,.483,1.135,.749,1.821,.749s1.334-.266,1.823-.751l10.15-10.171L13.829,.748Zm8.353,11.717l-5.63-.911L12.815,1.259c.1,.058,.208,.102,.293,.183l9.073,11.022Zm-10.175,2.047l-3.592-2.689L12.007,1.963l3.579,9.86-3.579,2.689ZM10.89,1.459c.09-.088,.203-.138,.31-.2l-3.75,10.294-5.624,.911L10.89,1.459ZM1.833,13.475l5.855-.948,3.812,2.854,.007,7.511c-.227-.072-.442-.178-.616-.35L1.833,13.475Zm11.293,9.065c-.175,.173-.391,.28-.619,.352l-.007-7.5,3.811-2.865,5.861,.948-9.047,9.065Z"/></svg>
