<?xml version="1.0" encoding="UTF-8" standalone="no"?><!DOCTYPE svg PUBLIC "-//W3C//DTD SVG 1.1//EN" "http://www.w3.org/Graphics/SVG/1.1/DTD/svg11.dtd"><svg width="100%" height="100%" viewBox="0 0 1280 1280" version="1.1" xmlns="http://www.w3.org/2000/svg" xmlns:xlink="http://www.w3.org/1999/xlink" xml:space="preserve" xmlns:serif="http://www.serif.com/" style="fill-rule:evenodd;clip-rule:evenodd;stroke-linecap:square;stroke-miterlimit:1.5;"><circle cx="640" cy="640" r="627.5" style="fill:#f4d58d;"/><path d="M942.735,978.482l8.232,-0l83.083,122.518l-788.1,0l83.083,-122.518l8.232,-0l0,-177.122c195.497,91.535 397.111,94.562 605.47,-0l-0,177.122Z" style="fill:#5b19d7;"/><path d="M294.436,232.912l88.683,50.439c13.003,7.432 29.673,3.163 37.007,-9.329l129.191,-220.89c5.001,-8.538 -1.501,-19.132 -11.836,-19.132c-2.667,-0 -5.334,0.791 -7.668,2.214l-236.71,154.006c-16.003,10.436 -15.336,33.047 1.333,42.534l0,0.158Zm-54.51,72.576l0,195.433c0,12.649 17.337,17.393 24.505,6.957l100.018,-145.468c8.335,-12.017 4.334,-28.145 -8.668,-35.576l-75.514,-43.008c-17.67,-10.12 -40.341,2.055 -40.341,21.662Zm490.757,-252.356l129.357,220.732c7.335,12.492 24.172,16.761 37.007,9.329l88.683,-50.439c16.67,-9.487 17.337,-32.098 1.334,-42.534l-236.877,-154.006c-2.334,-1.423 -5.001,-2.214 -7.668,-2.214c-10.335,-0 -16.837,10.594 -11.836,19.132Zm309.391,252.356c-0,-19.607 -22.671,-31.782 -40.341,-21.662l-75.514,43.008c-13.002,7.431 -16.837,23.559 -8.668,35.576l100.018,145.468c7.168,10.594 24.505,5.692 24.505,-6.957l-0,-195.433Zm-82.182,388.969l-267.716,29.884c-13.503,1.423 -23.504,12.333 -23.504,25.141l-0,83.486c-0,5.85 5,10.752 11.335,10.752c1.334,-0 2.667,-0.158 4.001,-0.633l287.886,-101.195c10.169,-3.479 16.836,-12.649 16.836,-22.927c0,-14.705 -13.502,-26.089 -28.838,-24.35l-0,-0.158Zm-355.899,149.105c6.168,-0 11.335,-4.744 11.335,-10.752l0,-83.17c0,-12.808 -10.168,-23.56 -23.504,-25.141l-267.716,-30.042c-15.336,-1.739 -28.838,9.645 -28.838,24.35c-0,10.278 6.667,19.448 16.836,22.927l287.886,101.195c1.334,0.474 2.667,0.633 4.001,0.633Zm-319.225,-204.13l284.885,31.94c13.003,1.423 22.338,-11.859 15.837,-22.611l-142.86,-237.176c-9.835,-16.445 -34.506,-17.077 -45.508,-1.265l-131.525,190.057c-10.835,15.654 -0.5,36.841 19.171,39.055Zm732.801,-39.213l-130.691,-189.741c-10.835,-15.812 -35.673,-15.18 -45.508,1.265l-142.36,236.543c-6.501,10.752 2.668,24.034 15.837,22.611l283.552,-31.623c19.67,-2.214 30.005,-23.243 19.17,-38.897l0,-0.158Zm-361.566,17.393l130.69,-216.938c10.169,-16.918 -2.667,-37.79 -23.171,-37.79l-243.044,0c-20.504,0 -33.34,21.03 -23.171,37.79l130.69,216.938c6.168,10.119 21.671,10.119 27.839,-0l0.167,-0Zm-150.028,-305.325l272.05,-0c20.337,-0 33.173,-20.714 23.338,-37.632l-133.358,-227.689c-4.668,-8.064 -13.669,-12.966 -23.338,-12.966l-5.334,0c-9.669,0 -18.67,5.06 -23.338,12.966l-133.358,227.689c-9.835,16.918 3.001,37.632 23.338,37.632Z" style="fill:#bf0603;fill-rule:nonzero;"/><path d="M327.787,979.305l632.526,0" style="fill:none;stroke:#f4d58d;stroke-width:14.47px;"/></svg>