<?xml version="1.0" encoding="UTF-8" standalone="no"?><!DOCTYPE svg PUBLIC "-//W3C//DTD SVG 1.1//EN" "http://www.w3.org/Graphics/SVG/1.1/DTD/svg11.dtd"><svg width="100%" height="100%" viewBox="0 0 1280 1280" version="1.1" xmlns="http://www.w3.org/2000/svg" xmlns:xlink="http://www.w3.org/1999/xlink" xml:space="preserve" xmlns:serif="http://www.serif.com/" style="fill-rule:evenodd;clip-rule:evenodd;stroke-linejoin:round;stroke-miterlimit:2;"><path d="M1007.57,1125.62l9.995,-0l100.876,148.756l-956.876,0l100.876,-148.756l9.995,-0l0,-215.054c237.363,111.139 482.154,114.814 735.134,0l-0,215.054Z" style="fill:#5b19d7;"/><path d="M1007.57,1125.62l9.995,-0l100.876,148.756l-956.876,0l100.876,-148.756l9.995,-0l0,-215.054c237.363,111.139 482.154,114.814 735.134,0l-0,215.054Zm-8.333,-0l-0,8.333l13.91,0c-0,0 89.574,132.09 89.574,132.09c-113.907,-0 -811.529,-0 -925.436,-0c0,-0 74.894,-110.441 89.574,-132.09c0,0 13.91,0 13.91,0l0,-210.375c232.217,105.15 471.473,108.488 718.468,-0.161c-0,0 -0,202.203 -0,202.203Z" style="fill:#f4d58d;"/><path d="M244.323,251.407l100.582,58.68c14.747,8.645 33.653,3.679 41.972,-10.853l146.523,-256.976c5.672,-9.933 -1.702,-22.258 -13.423,-22.258c-3.025,0 -6.05,0.92 -8.697,2.575l-268.469,179.166c-18.15,12.141 -17.394,38.445 1.512,49.482l0,0.184Zm-61.823,84.432l0,227.361c0,14.716 19.663,20.234 27.792,8.093l113.438,-169.232c9.453,-13.98 4.915,-32.743 -9.832,-41.388l-85.645,-50.034c-20.04,-11.773 -45.753,2.391 -45.753,25.2Zm556.6,-293.581l146.712,256.792c8.319,14.532 27.415,19.498 41.972,10.853l100.582,-58.68c18.906,-11.037 19.662,-37.341 1.512,-49.482l-268.658,-179.166c-2.647,-1.655 -5.672,-2.575 -8.697,-2.575c-11.721,-0 -19.095,12.325 -13.423,22.258Zm350.9,293.581c0,-22.809 -25.713,-36.973 -45.753,-25.2l-85.645,50.034c-14.747,8.645 -19.096,27.408 -9.832,41.388l113.438,169.232c8.13,12.325 27.792,6.623 27.792,-8.093l0,-227.361Zm-93.208,452.514l-303.634,34.766c-15.314,1.655 -26.658,14.348 -26.658,29.248l0,97.125c0,6.806 5.672,12.508 12.856,12.508c1.513,-0 3.025,-0.184 4.538,-0.736l326.511,-117.727c11.533,-4.047 19.095,-14.716 19.095,-26.672c0,-17.108 -15.314,-30.352 -32.708,-28.328l0,-0.184Zm-403.648,173.463c6.995,0 12.856,-5.518 12.856,-12.508l0,-96.757c0,-14.9 -11.533,-27.409 -26.658,-29.248l-303.634,-34.95c-17.394,-2.024 -32.708,11.221 -32.708,28.328c0,11.956 7.563,22.625 19.095,26.672l326.511,117.727c1.513,0.552 3.025,0.736 4.538,0.736Zm-362.055,-237.477l323.108,37.157c14.747,1.656 25.334,-13.796 17.961,-26.304l-162.027,-275.923c-11.154,-19.131 -39.136,-19.867 -51.614,-1.472l-149.17,221.106c-12.289,18.211 -0.567,42.86 21.742,45.436Zm831.119,-45.62l-148.225,-220.738c-12.289,-18.395 -40.46,-17.659 -51.614,1.472l-161.46,275.187c-7.373,12.508 3.025,27.96 17.961,26.304l321.596,-36.789c22.309,-2.576 34.031,-27.041 21.742,-45.252l-0,-0.184Zm-410.077,20.235l148.225,-252.378c11.533,-19.682 -3.025,-43.963 -26.279,-43.963l-275.654,-0c-23.254,-0 -37.812,24.465 -26.279,43.963l148.225,252.378c6.995,11.772 24.578,11.772 31.573,-0l0.189,-0Zm-170.156,-355.205l308.55,0c23.066,0 37.623,-24.097 26.469,-43.779l-151.25,-264.886c-5.294,-9.382 -15.503,-15.084 -26.469,-15.084l-6.05,-0c-10.966,-0 -21.175,5.886 -26.469,15.084l-151.25,264.886c-11.154,19.682 3.403,43.779 26.469,43.779Z" style="fill:#bf0603;fill-rule:nonzero;stroke:#f4d58d;stroke-width:8.33px;"/><path d="M280,1126.62l720,-0" style="fill:none;stroke:#f4d58d;stroke-width:14.47px;stroke-linecap:square;stroke-linejoin:miter;stroke-miterlimit:1.5;"/></svg>